<?xml version="1.0" standalone="no"?><!DOCTYPE svg PUBLIC "-//W3C//DTD SVG 1.1//EN" "http://www.w3.org/Graphics/SVG/1.1/DTD/svg11.dtd"><svg t="1620960312472" class="icon" viewBox="0 0 1024 1024" version="1.1" xmlns="http://www.w3.org/2000/svg" p-id="3982" xmlns:xlink="http://www.w3.org/1999/xlink" width="200" height="200"><defs><style type="text/css"></style></defs><path d="M910.363 344.66a22.047 22.047 0 0 1 14.769 5.67c9.055 8.15 9.788 22.121 1.639 31.176L528.407 824.024c-8.171 9.077-22.099 9.767-31.176 1.639-9.055-8.15-9.788-22.12-1.639-31.176l398.363-442.518c4.356-4.852 10.372-7.309 16.408-7.309z" fill="" p-id="3983"></path><path d="M113.637 344.66c6.037 0 12.052 2.458 16.407 7.309l398.363 442.518c8.15 9.055 7.417 23.026-1.639 31.176s-23.026 7.46-31.176-1.639L97.23 381.506c-8.15-9.055-7.417-23.026 1.639-31.176a22.038 22.038 0 0 1 14.768-5.67z" fill="" p-id="3984"></path></svg>